<svg xmlns="http://www.w3.org/2000/svg"
shape-rendering="geometricPrecision"
width="4000" height="4000" viewBox="0 0 1024 1024">
  <metadata>null</metadata>

<path d="
M 204.97 472.113
C 205.535 460.967 208.76 450.547 213.113 440.352
C 216.857 431.586 222.558 424.075 228.715 416.895
C 235.258 409.263 243.059 403.072 251.664 397.94
C 286.508 377.156 332.498 383.751 361.1 412.296
C 370.165 421.343 376.797 432.088 381.603 443.894
C 386.481 455.874 388.579 468.935 387.856 481.842
C 386.875 499.339 381.134 515.661 372.656 530.919
C 369.322 536.918 365.324 542.553 361.735 548.401
C 350.047 567.439 337.275 585.87 324.647 604.293
C 318.607 613.106 312.269 621.744 306.561 630.782
C 304.211 634.502 301.794 639.65 296.793 639.794
C 290.727 639.97 288.443 635.2 285.444 630.713
C 279.069 621.176 272.657 611.663 266.202 602.18
C 254.573 585.095 242.675 568.161 231.659 550.669
C 224.998 540.094 217.984 529.444 213.091 517.894
C 206.942 503.381 204.172 487.841 204.97 472.113 Z
M 220.431 471.108
C 218.827 484.608 222.123 497.748 227.308 510.116
C 228.411 512.746 229.597 515.285 230.955 517.795
C 231.407 518.631 231.901 520.313 232.66 520.819
C 236.71 518.35 241.054 516.398 245.137 513.99
C 250.811 510.644 256.415 506.738 261.547 502.618
C 264.397 500.33 268.417 498.002 270.557 495.019
C 260.142 483.587 249.941 472.588 242.403 458.945
C 239.472 453.64 236.508 448.268 234.289 442.619
C 233.919 441.675 232.747 437.467 232.013 437.649
C 229.162 443.229 226.059 448.488 224.064 454.493
C 222.24 459.982 221.723 465.541 220.431 471.108 Z
M 243.886 423.57
C 244.75 428.666 247.179 433.795 249.242 438.5
C 254.539 450.574 261.422 461.994 269.878 472.129
C 273.497 476.467 277.34 481.689 282.038 484.922
C 282.832 484.801 283.615 483.868 284.251 483.392
C 286.165 481.959 287.953 480.327 289.688 478.686
C 294.22 474.4 298.232 469.675 302.568 465.215
C 305.013 462.7 308.481 459.568 310.066 456.432
C 306.646 452.298 302.452 448.782 298.897 444.745
C 294.04 439.229 289.662 432.911 286.204 426.426
C 283.789 421.896 281.548 417.324 280.049 412.4
C 279.244 409.755 279.341 406.209 278.214 403.777
C 274.183 405.061 270.119 406.087 266.214 407.772
C 261.089 409.983 256.426 413.098 251.858 416.269
C 249.358 418.006 245.022 420.629 243.886 423.57 Z
M 246.592 531.514
C 248.77 533.63 251.802 535.067 254.476 536.473
C 258.249 538.456 262.011 540.436 265.999 541.958
C 275.063 545.416 284.678 548.004 294.415 548.455
C 305.552 548.972 316.758 546.333 326.937 542.023
C 330.2 540.642 333.959 539.41 336.904 537.421
C 336.651 536.564 333.671 536.014 332.844 535.723
C 328.847 534.316 324.969 532.708 321.102 530.976
C 312.267 527.021 303.68 522.173 295.845 516.47
C 291.186 513.079 286.768 509.309 282.036 506.039
C 280.613 506.352 279.467 507.973 278.402 508.92
C 276.113 510.956 273.62 512.765 271.216 514.662
C 263.367 520.854 254.945 526.047 246.592 531.514 Z
M 250.23 551.682
C 252.84 556.582 256.249 561.09 259.403 565.646
C 263.554 571.644 267.523 577.765 271.699 583.743
C 279.896 595.477 287.221 607.836 295.494 619.507
C 297.075 618.755 298.251 616.264 299.274 614.879
C 302.125 611.021 304.691 606.973 307.479 603.07
C 310.322 599.091 312.91 594.9 315.617 590.826
C 320.934 582.822 326.63 575.074 331.69 566.898
C 333.586 563.835 335.703 560.914 337.672 557.9
C 338.571 556.524 339.853 555.319 340.455 553.779
C 337.568 554.182 334.358 556.468 331.618 557.537
C 325.906 559.766 319.825 561.318 313.817 562.525
C 296.188 566.069 277.606 563.781 260.961 557.188
C 257.199 555.697 253.893 553.344 250.23 551.682 Z
M 292.603 401.219
C 295.252 411.71 299.765 421.314 306.424 429.894
C 310.368 434.976 315.147 439.264 319.655 443.815
C 320.055 443.474 320.124 442.915 320.401 442.491
C 321.586 440.67 322.799 438.865 323.949 437.019
C 327.314 431.613 330.557 426.129 332.967 420.217
C 333.677 418.476 334.284 416.679 335.09 414.977
C 335.353 414.421 336.116 413.354 335.917 412.728
C 323.023 404.013 308.014 400.549 292.603 401.219 Z
M 293.78 495.614
C 294.7 496.857 296.462 497.954 297.675 498.961
C 301.219 501.903 305.105 504.491 309.025 506.909
C 316.964 511.807 325.202 516.389 333.987 519.6
C 341.037 522.177 348.358 523.672 355.599 525.559
C 358.408 522.86 360.436 518.353 362.233 514.934
C 367.701 504.53 370.998 494.044 372.392 482.378
C 371.911 481.929 370.651 482.164 370.002 482.158
C 368.168 482.14 366.336 482.02 364.509 481.863
C 358.227 481.321 352.096 479.778 346.153 477.715
C 340.039 475.592 334.198 472.758 328.612 469.513
C 327.138 468.656 325.573 467.795 324.22 466.754
C 323.647 466.313 322.971 465.401 322.211 465.514
C 317.048 473.585 309.747 480.858 302.906 487.504
C 300.243 490.091 297.053 493.879 293.78 495.614 Z
M 332.297 452.503
C 332.175 452.753 332.053 453.002 331.931 453.252
C 338.611 456.593 344.357 460.96 351.642 463.201
C 356.193 464.6 360.826 465.564 365.552 466.113
C 367.561 466.346 369.733 466.099 371.691 466.636
C 370.999 463.736 370.783 460.757 369.995 457.859
C 367.488 448.644 363.586 439.6 357.889 431.884
C 355.754 428.993 353.448 426.154 350.944 423.573
C 350.396 423.008 348.844 420.854 348.518 421.661
C 346.069 430.208 341.642 438.237 336.931 445.732
C 335.477 448.046 333.679 450.15 332.297 452.503 Z"
opacity="1" fill="rgb(16,55,74)" fill-rule="evenodd" />
<path d="
M 220.431 471.108
C 221.723 465.541 222.24 459.982 224.064 454.493
C 226.059 448.488 229.162 443.229 232.013 437.649
C 232.747 437.467 233.919 441.675 234.289 442.619
C 236.508 448.268 239.472 453.64 242.403 458.945
C 249.941 472.588 260.142 483.587 270.557 495.019
C 268.417 498.002 264.397 500.33 261.547 502.618
C 256.415 506.738 250.811 510.644 245.137 513.99
C 241.054 516.398 236.71 518.35 232.66 520.819
C 231.901 520.313 231.407 518.631 230.955 517.795
C 229.597 515.285 228.411 512.746 227.308 510.116
C 222.123 497.748 218.827 484.608 220.431 471.108 Z"
opacity="1" fill="rgb(71,191,63)" fill-rule="evenodd" />
<path d="
M 243.886 423.57
C 245.022 420.629 249.358 418.006 251.858 416.269
C 256.426 413.098 261.089 409.983 266.214 407.772
C 270.119 406.087 274.183 405.061 278.214 403.777
C 279.341 406.209 279.244 409.755 280.049 412.4
C 281.548 417.324 283.789 421.896 286.204 426.426
C 289.662 432.911 294.04 439.229 298.897 444.745
C 302.452 448.782 306.646 452.298 310.066 456.432
C 308.481 459.568 305.013 462.7 302.568 465.215
C 298.232 469.675 294.22 474.4 289.688 478.686
C 287.953 480.327 286.165 481.959 284.251 483.392
C 283.615 483.868 282.832 484.801 282.038 484.922
C 277.34 481.689 273.497 476.467 269.878 472.129
C 261.422 461.994 254.539 450.574 249.242 438.5
C 247.179 433.795 244.75 428.666 243.886 423.57 Z"
opacity="1" fill="rgb(74,186,226)" fill-rule="evenodd" />
<path d="
M 246.592 531.514
C 254.945 526.047 263.367 520.854 271.216 514.662
C 273.62 512.765 276.113 510.956 278.402 508.92
C 279.467 507.973 280.613 506.352 282.036 506.039
C 286.768 509.309 291.186 513.079 295.845 516.47
C 303.68 522.173 312.267 527.021 321.102 530.976
C 324.969 532.708 328.847 534.316 332.844 535.723
C 333.671 536.014 336.651 536.564 336.904 537.421
C 333.959 539.41 330.2 540.642 326.937 542.023
C 316.758 546.333 305.552 548.972 294.415 548.455
C 284.678 548.004 275.063 545.416 265.999 541.958
C 262.011 540.436 258.249 538.456 254.476 536.473
C 251.802 535.067 248.77 533.63 246.592 531.514 Z"
opacity="1" fill="rgb(69,191,63)" fill-rule="evenodd" />
<path d="
M 250.23 551.682
C 253.893 553.344 257.199 555.697 260.961 557.188
C 277.606 563.781 296.188 566.069 313.817 562.525
C 319.825 561.318 325.906 559.766 331.618 557.537
C 334.358 556.468 337.568 554.182 340.455 553.779
C 339.853 555.319 338.571 556.524 337.672 557.9
C 335.703 560.914 333.586 563.835 331.69 566.898
C 326.63 575.074 320.934 582.822 315.617 590.826
C 312.91 594.9 310.322 599.091 307.479 603.07
C 304.691 606.973 302.125 611.021 299.274 614.879
C 298.251 616.264 297.075 618.755 295.494 619.507
C 287.221 607.836 279.896 595.477 271.699 583.743
C 267.523 577.765 263.554 571.644 259.403 565.646
C 256.249 561.09 252.84 556.582 250.23 551.682 Z"
opacity="1" fill="rgb(37,136,191)" fill-rule="evenodd" />
<path d="
M 292.603 401.219
C 308.014 400.549 323.023 404.013 335.917 412.728
C 336.116 413.354 335.353 414.421 335.09 414.977
C 334.284 416.679 333.677 418.476 332.967 420.217
C 330.557 426.129 327.314 431.613 323.949 437.019
C 322.799 438.865 321.586 440.67 320.401 442.491
C 320.124 442.915 320.055 443.474 319.655 443.815
C 315.147 439.264 310.368 434.976 306.424 429.894
C 299.765 421.314 295.252 411.71 292.603 401.219 Z"
opacity="1" fill="rgb(223,132,73)" fill-rule="evenodd" />
<path d="
M 293.78 495.614
C 297.053 493.879 300.243 490.091 302.906 487.504
C 309.747 480.858 317.048 473.585 322.211 465.514
C 322.971 465.401 323.647 466.313 324.22 466.754
C 325.573 467.795 327.138 468.656 328.612 469.513
C 334.198 472.758 340.039 475.592 346.153 477.715
C 352.096 479.778 358.227 481.321 364.509 481.863
C 366.336 482.02 368.168 482.14 370.002 482.158
C 370.651 482.164 371.911 481.929 372.392 482.378
C 370.998 494.044 367.701 504.53 362.233 514.934
C 360.436 518.353 358.408 522.86 355.599 525.559
C 348.358 523.672 341.037 522.177 333.987 519.6
C 325.202 516.389 316.964 511.807 309.025 506.909
C 305.105 504.491 301.219 501.903 297.675 498.961
C 296.462 497.954 294.7 496.857 293.78 495.614 Z"
opacity="1" fill="rgb(250,187,62)" fill-rule="evenodd" />
<path d="
M 332.297 452.503
C 333.679 450.15 335.477 448.046 336.931 445.732
C 341.642 438.237 346.069 430.208 348.518 421.661
C 348.844 420.854 350.396 423.008 350.944 423.573
C 353.448 426.154 355.754 428.993 357.889 431.884
C 363.586 439.6 367.488 448.644 369.995 457.859
C 370.783 460.757 370.999 463.736 371.691 466.636
C 369.733 466.099 367.561 466.346 365.552 466.113
C 360.826 465.564 356.193 464.6 351.642 463.201
C 344.357 460.96 338.611 456.593 331.931 453.252
C 332.053 453.002 332.175 452.753 332.297 452.503 Z"
opacity="1" fill="rgb(222,134,73)" fill-rule="evenodd" />
<path d="
M 416.4 400.074
C 417.206 397.708 419.026 395.078 421.51 394.253
C 424.33 393.315 428.533 394.073 431.507 394.054
C 439.174 394.005 446.841 394.02 454.508 394.019
C 486.009 394.011 517.509 394.017 549.009 394.002
C 557.66 393.998 566.301 394.003 574.953 394.014
C 578.081 394.018 583.005 393.019 585.788 394.605
C 590.369 397.215 590.235 401.561 590.226 406.204
C 590.213 413.137 590.154 420.075 590.245 427.008
C 590.299 431.093 590.467 434.76 586.387 436.997
C 584.626 437.962 582.346 437.699 580.416 437.693
C 576.777 437.681 573.139 437.682 569.5 437.682
C 560 437.682 550.501 437.659 541.002 437.666
C 536.369 437.67 531.523 438.098 526.916 437.68
C 527.338 443.242 527.073 448.924 527.077 454.503
C 527.085 465.298 527.021 476.094 526.971 486.886
C 526.861 510.423 527.085 533.966 527.073 557.503
C 527.066 572.67 527.096 587.837 527.1 603.003
C 527.101 607.793 527.146 612.581 527.179 617.37
C 527.194 619.569 527.562 622.047 527.138 624.213
C 526.282 628.574 522.201 629.771 518.38 629.789
C 509.753 629.828 501.125 629.763 492.497 629.777
C 488.925 629.783 484.636 630.643 481.926 627.788
C 478.515 624.195 479.717 618.024 479.713 613.503
C 479.705 601.669 479.719 589.836 479.716 578.002
C 479.709 547.502 479.64 517.001 479.729 486.501
C 479.76 476.002 479.762 465.503 479.785 455.004
C 479.797 449.374 480.206 443.595 479.693 437.986
C 478.971 437.357 476.448 437.742 475.498 437.734
C 471.331 437.7 467.164 437.71 462.997 437.717
C 452.331 437.735 441.662 437.637 430.996 437.72
C 426.942 437.752 421.384 439.06 418.405 435.615
C 416.229 433.099 416.378 430.18 416.371 427.051
C 416.362 423.201 416.364 419.35 416.345 415.5
C 416.321 410.602 415.449 404.873 416.4 400.074 Z"
opacity="1" fill="rgb(18,57,75)" fill-rule="evenodd" />
<path d="
M 598.418 586.57
C 599.59 582.619 603.271 579.047 605.99 576.076
C 610.691 570.939 615.258 565.619 619.752 560.3
C 622.483 557.068 625.123 554.095 629.735 554.686
C 633.503 555.168 636.156 558.622 638.707 561.124
C 642.21 564.562 646.109 567.549 650.244 570.182
C 666.734 580.682 686.449 585.725 705.931 583.294
C 714.049 582.281 724.082 579.543 728.786 572.213
C 730.248 569.936 731.099 567.386 731.334 564.697
C 731.532 562.435 731.546 559.908 730.989 557.693
C 728.077 546.131 713.667 542.24 703.615 539.582
C 701.539 539.033 699.483 538.406 697.416 537.822
C 692.884 536.542 688.266 535.502 683.696 534.365
C 656.77 527.667 624.31 519.723 611.292 492.311
C 608.983 487.448 607.586 481.909 606.737 476.61
C 605.578 469.374 605.617 461.792 606.449 454.523
C 607.166 448.261 608.872 442.174 611.137 436.313
C 617.614 419.551 632.709 407.536 648.688 400.455
C 679.093 386.982 716.209 388.809 746.698 401.114
C 758.544 405.895 770.645 412.9 779.219 422.537
C 782.469 426.188 782.896 430.546 780.293 434.725
C 778.062 438.306 774.798 441.41 771.924 444.468
C 768.551 448.055 765.443 451.917 762.141 455.571
C 759.361 458.647 756.871 463.307 752.391 464.026
C 747.61 464.794 744.889 461.302 741.721 458.439
C 739.008 455.987 736.173 453.575 733.055 451.647
C 718.052 442.368 699.131 439.086 681.855 442.472
C 673.547 444.101 664.179 449.086 663.321 458.491
C 662.556 466.868 668.035 472.999 675.299 476.255
C 687.774 481.847 701.769 484.322 714.958 487.698
C 734.899 492.801 755.964 498.442 771.353 512.911
C 792.266 532.574 793.229 567.768 781.073 592.32
C 778.595 597.325 775.319 601.933 771.653 606.135
C 760.106 619.37 743.393 626.896 726.568 630.717
C 697.663 637.281 666.064 634.566 638.885 622.602
C 626.682 617.231 614.918 609.844 605.305 600.554
C 601.599 596.972 596.711 592.326 598.418 586.57 Z"
opacity="1" fill="rgb(17,56,74)" fill-rule="evenodd" />

</svg>